<?xml version="1.0" standalone="no"?>
<!DOCTYPE svg PUBLIC "-//W3C//DTD SVG 20010904//EN"
 "http://www.w3.org/TR/2001/REC-SVG-20010904/DTD/svg10.dtd">
 
<svg version="1.0" xmlns="http://www.w3.org/2000/svg"
 width="150.000000pt" height="150.000000pt" viewBox="0 0 150.000000 150.000000"
 preserveAspectRatio="xMidYMid meet">

<g transform="translate(0.000000,150.000000) scale(0.100000,-0.100000)"
fill="#000000" stroke="none">
<path d="M594 1475 c-146 -32 -285 -113 -390 -229 -125 -136 -184 -280 -192
-466 -6 -143 16 -242 83 -376 40 -79 44 -94 35 -118 -22 -60 29 -145 98 -163
14 -3 43 -2 63 4 34 9 42 7 88 -22 106 -67 299 -112 426 -100 327 31 585 248
671 566 11 42 17 102 17 174 1 120 -14 189 -64 311 -28 67 -29 72 -14 107 33
79 8 171 -61 223 -45 35 -130 44 -187 21 -36 -15 -39 -15 -99 13 -141 66 -326
87 -474 55z m365 -129 c41 -14 79 -30 84 -35 6 -6 11 -36 11 -68 2 -78 28
-128 85 -164 37 -24 56 -29 108 -29 72 0 74 -2 113 -125 28 -89 31 -240 6
-334 -43 -167 -165 -322 -315 -400 -107 -55 -184 -74 -306 -73 -108 0 -217 28
-300 75 -34 19 -41 29 -46 62 -11 81 -65 135 -133 135 l-42 0 -36 72 c-52 107
-63 157 -63 293 0 91 5 133 19 175 72 211 219 359 421 423 76 24 92 26 210 22
86 -2 126 -9 184 -29z m322 -47 c46 -24 43 -93 -6 -125 -50 -33 -114 20 -99
82 11 45 63 66 105 43z"/>
</g>
</svg>